<svg version="1.2" xmlns="http://www.w3.org/2000/svg" viewBox="0 0 1552 1350" width="1552" height="1350">
	<title>footer-logo (11)</title>
	<style>
		.s0 { fill: #ffffff } 
	</style>
	<g id="Wortmarke">
		<path id="Bildmarke" class="s0" d="m1214.9 1045.8c-0.7-5.1-1-8.3-1.5-13-0.9-7.1-2-14.8-2.7-20.1-1-6.9-3.2-19.5-4.7-27q-0.1-0.2-0.2-0.4-0.1-0.2-0.3-0.3-0.2-0.1-0.4-0.2-0.2-0.1-0.5-0.1h-428.4c0 0-348.7 0-395.4 0-3.2 0-6.3 0-6.8-0.1-24.1-0.4-48.1-2.6-71.8-6.7-23.7-4.1-47-9.9-69.9-17.6-22.8-7.6-45-16.9-66.4-27.9-21.4-11-41.9-23.6-61.4-37.7q-0.3-0.3-0.8-0.3-0.5 0-0.8 0.4-0.4 0.3-0.5 0.7 0 0.5 0.2 0.9l261.3 452.9q0.1 0.2 0.3 0.3 0.1 0.1 0.2 0.2 0.2 0.1 0.4 0.1 0.1 0.1 0.3 0.1h770.8q0.2 0 0.3-0.1 0.2 0 0.3-0.1 0.2 0 0.3-0.1 0.1-0.1 0.2-0.3c14.7-20.4 27.5-42 38.4-64.6 10.9-22.6 19.8-46.2 26.6-70.3 6.8-24.2 11.5-48.9 14-73.9 2.4-25 2.7-50.2 0.8-75.2-0.5-6.5-1.1-13.1-1.9-19.6zm-56-1008.8q0-0.1-0.2-0.2-0.1-0.1-0.2-0.2-0.1-0.1-0.3-0.2-0.2 0-0.3 0-17.2-1.4-34.4-1.4c-18.2 0-36.4 1.2-54.4 3.5-18 2.4-35.8 5.9-53.4 10.6-17.5 4.7-34.8 10.5-51.6 17.5-16.8 6.9-33.1 14.9-48.9 23.9q-12.2 6.9-23.9 14.6-11.6 7.6-22.8 16-11.2 8.5-21.8 17.6-10.6 9.1-20.5 18.9-4.8 4.7-9.4 9.6-0.2 0.1-0.3 0.3-0.1 0.2-0.1 0.4 0 0.3 0 0.5 0.1 0.2 0.2 0.4c14.9 25.9 358.5 621.8 409.3 710.5 13.7 25.6 24.9 52.5 33.4 80.3 8.5 27.7 14.3 56.3 17.3 85.2 3 28.9 3.2 58 0.6 86.9-2.6 29-8 57.6-16.1 85.5q-0.1 0.5 0.1 0.9 0.2 0.5 0.7 0.7 0.4 0.2 0.9 0 0.5-0.2 0.8-0.6l288.2-499.3q0.1-0.1 0.2-0.3 0-0.2 0-0.3 0-0.2 0-0.4-0.1-0.2-0.2-0.3zm-745-36.4l-404.3 700.6q-0.1 0.1-0.1 0.3-0.1 0.2 0 0.4 0 0.1 0 0.3 0.1 0.2 0.2 0.4 8.2 13.1 17 25.9 8.7 12.8 18 25.3 9.3 12.4 19.1 24.5 9.7 12.1 19.9 23.7 14.6 14.7 30.5 27.8 16 13.1 33.1 24.7 17.1 11.5 35.2 21.4 18.2 9.8 37.2 17.8 9.8 4.3 19.8 8.1 10 3.8 20.2 7 10.2 3.2 20.5 5.9 10.4 2.7 20.8 4.8 0.3 0 0.5 0 0.2 0 0.4-0.1 0.2-0.1 0.3-0.2 0.2-0.2 0.3-0.4c15.5-26.8 402.2-696.6 403.4-698.6 14.6-25.4 31.5-49.4 50.5-71.8 19-22.4 40-43 62.7-61.5 22.8-18.6 47.1-35.1 72.8-49.2 25.8-14.1 52.7-25.9 80.5-35.1q0.5-0.2 0.7-0.6 0.3-0.4 0.2-0.9-0.1-0.5-0.4-0.8-0.4-0.3-0.9-0.4h-556.9q-0.2 0-0.4 0.1-0.1 0-0.3 0.1-0.1 0.1-0.3 0.2-0.1 0.2-0.2 0.3z"/>
	</g>
</svg>