<svg
  version="1.1"
  id="Layer_1"
  xmlns="http://www.w3.org/2000/svg"
  xmlns:xlink="http://www.w3.org/1999/xlink"
  x="0px"
  y="0px"
  enable-background="new 0 0 200 200"
  xml:space="preserve"
  viewBox="49.15 47.77 101.37 103.2"
>
  <g>
    <path
      fill="#FFFFFF"
      d="M100.676,145.947c-25.682,0-46.576-20.895-46.576-46.578c0-25.683,20.894-46.578,46.576-46.578   		c15.742,0,29.941,7.997,38.413,20.319l4.2-2.875c-9.307-13.542-24.897-22.444-42.533-22.444c-28.438,0-51.576,23.138-51.576,51.578   		c0,11.646,3.884,22.398,10.417,31.041l-8.47,17.709h15.519l3.482-7.281c8.572,6.348,19.167,10.109,30.627,10.109a   		c11.51,0,22.14-3.8,30.727-10.2l3.52,7.372h5.767l-7.446-15.593C124.547,141.188,113.021,145.947,100.676,145.947z"
    ></path>
    <path
      fill="#FFFFFF"
      d="M100.676,56.791C77.2,56.791,58.1,75.892,58.1,99.369s19.1,42.578,42.576,42.578   		c11.654,0,22.776-4.812,30.814-13.256l-8.771-18.369H85.007l1.922-4h38.314l19.957,41.797h5.315l-40.691-85.214   		c9.034,2.249,16.788,7.771,21.916,15.235l4.039-2.764C128.006,64.118,114.982,56.791,100.676,56.791z M119.341,115.322   		l5.943,12.445c-6.584,5.706-15.149,9.18-24.528,9.18c-9.323,0-17.856-3.421-24.431-9.062l6.008-12.562H119.341z M66.778,115.397   		c-2.304-4.865-3.599-10.298-3.599-16.028c0-17.672,12.266-32.526,28.729-36.516L66.778,115.397z M112.656,101.322H89.028   		l11.824-24.72L112.656,101.322z"
    ></path>
  </g>
</svg>
